<svg fill="none" height="205" width="2500" xmlns="http://www.w3.org/2000/svg" viewBox="-0.020999999999999908 1.42 415.074 31.186"><g><path d="M402.043 17.117h-7.729V6.135h8c3.728.099 6.448 2.23 6.459 5.717-.041 3.07-2.052 5.178-6.732 5.265zm12.587 12.559c-2.32-3.064-5.787-7.602-7.3-9.587 3.403-1.446 5.772-4.342 5.772-8.315-.009-5.112-4.261-9.607-10.699-9.607h-11.269l-.081-.02c-.425 0-1.213.78-1.213 1.357-.015.488-.015 26.493 0 27.09.009.208-.034.434.23.847.339.454.843.479 1.064.479h1.877c.105 0 .503.03.988-.442.355-.405.296-.657.315-.885V21h8.393l7.636 10.237c.201.325.896.684 1.397.684h1.83c.134 0 1.443-.338 1.443-1.185.04-.4-.268-.93-.385-1.06zm-36.954-.223c-.028-.242.131-.465-.29-1.115-.474-.391-.783-.391-1.024-.391-.027 0-.108.033-.18 0h-15.866v-9.153h15.565c.948 0 1.32-1.289 1.32-1.636v-.848c0-.216-.419-1.504-1.32-1.504h-15.523V6.14h15.7c.198.022.771-.007 1.154-.5.285-.485.261-.735.276-1.01v-1.04c-.079-.241.049-.53-.285-1.052-.464-.37-.841-.37-1.06-.37h-19.154c-.119-.021-.34-.021-.719.229-.492.46-.332.834-.353.902v27.114c.021.265-.117.515.204.944.332.486.828.56 1.085.56h19.156c.181 0 .466.01.947-.358.484-.533.354-.826.367-1.076zm-43.933-14.814l9.728-10.472c.158-.195.324-.424.324-.718-.071-.8-.684-1.281-1.42-1.281h-1.798c-.607-.062-1.226.36-1.399.479l-14.631 15.966V3.556c0-.205.032-.495-.292-.967-.363-.41-.87-.421-1.091-.421h-1.677c-.209 0-.605 0-1.043.347-.356.383-.345.77-.345.988-.011.38-.011 26.81 0 27.113 0 .214 0 .618.362.92.355.325.781.382 1.081.382h1.503c.261-.024.589.01 1.106-.314.428-.402.394-.828.394-.988v-6.088l6.072-6.578 10.356 13.122c.391.306.521.66 1.632.848h1.968c.456 0 1.38-.442 1.38-1.172-.009-.422-.141-.619-.307-.834zm-37.903 2.478h-7.785V6.135h7.983c3.737.099 6.51 2.23 6.54 5.717-.041 3.07-2.058 5.178-6.738 5.265zm5.273 2.972c3.399-1.446 5.793-4.342 5.781-8.315 0-5.112-4.214-9.607-10.756-9.607h-11.233l-.04-.02c-.415 0-1.222.779-1.222 1.356v27.09c.008.21-.055.435.253.848.336.454.843.479 1.009.479h1.858c.079 0 .532.03.996-.442.372-.405.298-.657.298-.885V21h8.438l7.677 10.237c.153.325.847.684 1.372.684h1.758c.185 0 1.496-.338 1.496-1.185.017-.4-.281-.93-.398-1.06-2.339-3.063-5.731-7.6-7.287-9.586zm-48.67 1.247c1.356-2.592 4.321-8.401 6.3-12.504.023-.013.034-.022.034-.035.043.022.053.034.085.07 2.024 4.057 4.929 9.875 6.212 12.468zm7.607-19.068c0-.025-.441-.848-1.273-.814-.787-.033-1.196.814-1.196.814-2.79 5.176-12.693 24.616-14.263 27.729-.134.142-.239.338-.239.807.105 1.116 1.273 1.116 1.496 1.116h1.477c.713.117 1.582-.65 1.609-.955l2.95-5.755h16.379l2.975 5.871c.03.264.787.848 1.273.848.019 0 .055 0 .083-.01h1.838c.33 0 1.394-.358 1.394-1.129-.023-.36-.155-.53-.198-.747-1.762-3.498-11.626-22.479-14.305-27.775zm-31.828 14.916c-2.436-.025-6.225-.025-8.07-.025V6.141h7.987c3.625.093 6.438 2.042 6.438 5.514-.019 3.681-2.796 5.492-6.355 5.529zm.054-15.016h-11.284a1.131 1.131 0 0 0-.905.36c-.31.328-.376.67-.376.976v27.09c.066.208-.068.434.338.915.383.41.766.41.932.41h1.954c.142 0 .679 0 1.011-.541.285-.447.176-.629.206-.785v-9.46h7.283c6.706-.015 11.571-3.625 11.594-9.478-.023-5.88-5.118-9.487-10.753-9.487zm-46.447 0h-1.761c-.581-.027-1.217.533-1.38.903-1.515 2.236-6.733 10.136-8.764 13.262-2.043-3.172-7.244-11.136-8.761-13.379 0-.264-1.018-.936-1.46-.786h-1.559c-.305 0-1.373 0-1.588 1.131.019.38.163.572.215.693 2.196 3.354 9.764 14.975 10.947 16.705v9.833c.023.27-.064.542.332.977.283.352.716.41.936.41h1.718c.263 0 .637 0 1.111-.41.383-.516.296-.794.296-1.08v-9.731c1.176-1.696 8.48-12.842 10.857-16.564.09-.264.21-.347.243-.834-.077-1.074-1.228-1.133-1.379-1.133zm-43.344 25.813h-9.798v-9.119h9.719c4.247.063 6.413 1.932 6.451 4.632-.125 3.07-1.717 4.312-6.372 4.487zm-9.797-21.847h8.504c4.053.11 5.984 1.823 6.035 4.394-.229 3.296-1.183 4.278-5.319 4.449h-9.22zm16.278 10.374c1.702-1.247 2.777-3.346 2.714-6.15 0-5.288-4.952-8.189-10.77-8.189h-11.275c-.2 0-.617 0-1.033.326-.408.317-.408.793-.408 1.064v27.037c0 .435.715 1.326 1.342 1.326h13.269c6.432 0 10.499-2.824 10.52-8.424 0-3.114-1.703-5.699-4.359-6.99zm-45.055.61h-7.853V6.141h8.048c3.671.093 6.432 2.225 6.502 5.71-.133 3.071-2.11 5.21-6.699 5.265zm5.236 2.982c3.392-1.454 5.807-4.35 5.807-8.323-.066-5.126-4.255-9.609-10.739-9.609H88.917a1.091 1.091 0 0 0-.899.36c-.318.328-.35.67-.35.976v27.09c0 .208-.078.434.218.833.384.493.888.493 1.088.493h1.843c.166 0 .54 0 .964-.41.373-.482.252-.708.296-.917v-9.548h8.445l7.67 10.19c.235.302.788.685 1.286.685h1.856c.197 0 1.47-.282 1.47-1.185.02-.41-.305-.943-.409-1.06-2.304-3.04-5.717-7.6-7.254-9.578zm-48.936 1.239c1.297-2.592 4.282-8.401 6.314-12.504 0-.014.01-.022.01-.055.01.041.036.055.055.09 2.065 4.057 4.92 9.874 6.258 12.467zM63.77 2.268c0-.025-.364-.848-1.223-.814-.789-.033-1.259.814-1.259.814-2.711 5.176-12.64 24.616-14.217 27.729-.124.142-.276.338-.276.807.152 1.116 1.341 1.116 1.549 1.116h1.48c.706.117 1.53-.65 1.627-.955l2.83-5.755h16.427l2.943 5.871c.027.264.83.848 1.286.848.028 0 .083 0 .107-.01h1.877c.315 0 1.356-.358 1.356-1.129 0-.36-.097-.53-.213-.747C76.36 26.545 66.51 7.563 63.769 2.268zm-22.653-.1h-1.484c-.368-.116-1.521.406-1.521.893l-7.848 20.38L22.63 2.908c-.138-.651-1.19-.87-1.269-.815h-.119c-.392-.129-1.225.533-1.225.834l-7.391 20.531A10048.01 10048.01 0 0 1 4.583 3.242c-.094-.452-.747-1.136-1.443-1.074H1.227c-.125 0-.305-.02-.72.155-.384.218-.528.738-.505.943 0 .338.111.488.16.725l11.131 27.762c.422.664 1.046.793 1.245.793h.089s1.003.06 1.304-.875c2.12-5.765 5.69-15.272 7.401-19.786 1.677 4.567 5.246 14.247 7.351 19.794.138.663 1.231.893 1.35.867.086.027 1.18-.205 1.28-.834 3.732-9.245 8.2-20.383 11.087-27.721.075-.237.11-.324.141-.692 0-.976-1.306-1.131-1.425-1.131z" fill="#000"/></g></svg>