<?xml version="1.0" encoding="UTF-8" standalone="no"?>
<svg
   id="Layer_1"
   viewBox="0 0 500 73.636467"
   version="1.1"
   sodipodi:docname="logo.svg"
   width="500"
   height="73.636467"
   inkscape:version="1.2.2 (732a01da63, 2022-12-09)"
   xmlns:inkscape="http://www.inkscape.org/namespaces/inkscape"
   xmlns:sodipodi="http://sodipodi.sourceforge.net/DTD/sodipodi-0.dtd"
   xmlns="http://www.w3.org/2000/svg"
   xmlns:svg="http://www.w3.org/2000/svg">
  <sodipodi:namedview
     id="namedview21"
     pagecolor="#ffffff"
     bordercolor="#000000"
     borderopacity="0.25"
     inkscape:showpageshadow="2"
     inkscape:pageopacity="0.0"
     inkscape:pagecheckerboard="0"
     inkscape:deskcolor="#d1d1d1"
     showgrid="false"
     inkscape:zoom="0.94359472"
     inkscape:cx="191.81964"
     inkscape:cy="234.74061"
     inkscape:window-width="1704"
     inkscape:window-height="1360"
     inkscape:window-x="1700"
     inkscape:window-y="0"
     inkscape:window-maximized="0"
     inkscape:current-layer="Layer_1" />
  <defs
     id="defs4">
    <style
       id="style2">.cls-1{fill:#050607;}</style>
  </defs>
  <g
     id="g257"
     transform="matrix(1.117961,0,0,1.117961,-1.4802052,-18.901585)"
     style="stroke-width:0.894486">
    <path
       class="cls-1"
       d="m 39.56,40 a 23.34,23.34 0 0 0 -0.7,-5.72 13.61,13.61 0 0 0 -2.28,-4.84 11.62,11.62 0 0 0 -4.09,-3.35 13.74,13.74 0 0 0 -6.14,-1.25 11.88,11.88 0 0 0 -10.88,6.4 q -3.72,6.4 -3.72,18.38 0,11.98 4,18.15 4,6.27 11.81,6.27 7.81,0 16.27,-7 a 11.27,11.27 0 0 1 4.93,6.42 27.43,27.43 0 0 1 -4.69,3.72 41.09,41.09 0 0 1 -5.58,2.93 34.7,34.7 0 0 1 -6.05,1.95 27.57,27.57 0 0 1 -6.09,0.7 24,24 0 0 1 -12,-2.75 A 20.48,20.48 0 0 1 6.77,72.8 34.83,34.83 0 0 1 2.68,62.38 54.62,54.62 0 0 1 1.33,50.16 a 48.79,48.79 0 0 1 2,-14.61 30.49,30.49 0 0 1 5.3,-10.36 22.4,22.4 0 0 1 7.95,-6.19 23,23 0 0 1 9.68,-2.09 28.66,28.66 0 0 1 9.53,1.49 23.12,23.12 0 0 1 7.25,4 17.28,17.28 0 0 1 4.61,5.76 15.67,15.67 0 0 1 1.58,6.84 q 0,5.58 -5.58,5.58 A 17.84,17.84 0 0 1 39.56,40 Z"
       id="path6"
       style="stroke-width:0.894486" />
    <path
       class="cls-1"
       d="m 90.61,68.76 -0.09,4.74 a 60.86,60.86 0 0 1 6.14,-0.28 h 24.08 a 19.12,19.12 0 0 1 -0.28,3.81 q -0.83,4.65 -6.32,4.65 H 86.52 A 5.39,5.39 0 0 1 82.38,80.05 6.3,6.3 0 0 1 80.85,75.54 V 18.63 l 0.65,-0.56 h 37.38 a 21.92,21.92 0 0 1 0.28,3.95 12.45,12.45 0 0 1 -0.74,4.42 h -27.9 l 0.09,6.05 v 13 l 5.77,-0.1 h 17.48 a 15.73,15.73 0 0 1 0.47,4.14 14.71,14.71 0 0 1 -0.47,4.05 H 96.38 c -2.42,0 -4.34,0 -5.77,-0.1 z"
       id="path8"
       style="stroke-width:0.894486" />
    <path
       class="cls-1"
       d="m 178,26.44 -5.39,-0.09 v 55.24 a 34.31,34.31 0 0 1 -10,0 V 33.23 l 0.1,-6.88 h -0.1 l -5.3,0.09 h -11.08 a 23.24,23.24 0 0 1 0,-8.37 h 42.87 a 17.79,17.79 0 0 1 0.56,4.28 q 0,4.09 -5.58,4.09 z"
       id="path10"
       style="stroke-width:0.894486" />
    <path
       class="cls-1"
       d="m 246.2,26.44 -5.4,-0.09 v 55.24 a 34.24,34.24 0 0 1 -10,0 V 33.23 l 0.09,-6.88 h -0.09 l -5.3,0.09 h -11.11 a 22.19,22.19 0 0 1 -0.37,-4.18 22.22,22.22 0 0 1 0.37,-4.19 h 42.87 a 17.31,17.31 0 0 1 0.56,4.28 q 0,4.09 -5.58,4.09 z"
       id="path12"
       style="stroke-width:0.894486" />
    <path
       class="cls-1"
       d="M 286.84,81.59 V 18.07 a 25.68,25.68 0 0 1 4.88,-0.37 27.37,27.37 0 0 1 5,0.37 v 63.52 a 27.37,27.37 0 0 1 -5,0.37 25.68,25.68 0 0 1 -4.88,-0.37 z"
       id="path14"
       style="stroke-width:0.894486" />
    <path
       class="cls-1"
       d="m 334,18 20,-0.28 q 9.86,0 15.49,5 5.63,5 5.62,14.09 a 17.66,17.66 0 0 1 -3.3,10.74 16.63,16.63 0 0 1 -8.6,6.19 c 2.91,1.05 5.12,3.69 6.6,7.9 l 4.1,10.89 c 1.17,3.22 2.57,5.45 4.18,6.69 -1.36,2 -3.6,3.07 -6.69,3.07 a 5.26,5.26 0 0 1 -4,-1.39 13.71,13.71 0 0 1 -2.56,-4.65 L 360.19,63.69 A 15.38,15.38 0 0 0 356.82,58 c -1.33,-1.3 -3.33,-2 -6,-2 h -7.62 v 25.59 a 27,27 0 0 1 -4.93,0.37 25.36,25.36 0 0 1 -4.84,-0.37 v -63 z m 9.21,7.44 v 22.67 c 4.83,-0.12 8.27,-0.19 10.32,-0.19 q 6.23,0 8.79,-3.16 a 12.33,12.33 0 0 0 2.55,-8 q 0,-11.25 -11.34,-11.25 -7.18,0 -10.33,-0.09 z"
       id="path16"
       style="stroke-width:0.894486" />
    <path
       class="cls-1"
       d="m 418.43,68.76 -0.09,4.74 a 60.86,60.86 0 0 1 6.14,-0.28 h 24.08 a 19.12,19.12 0 0 1 -0.28,3.81 q -0.82,4.65 -6.32,4.65 h -27.62 a 5.39,5.39 0 0 1 -4.14,-1.63 6.3,6.3 0 0 1 -1.53,-4.51 V 18.63 l 0.65,-0.56 h 37.38 a 21.92,21.92 0 0 1 0.3,3.93 12.45,12.45 0 0 1 -0.74,4.42 h -27.9 l 0.09,6.05 v 13 l 5.77,-0.1 h 17.48 a 15.73,15.73 0 0 1 0.47,4.14 14.71,14.71 0 0 1 -0.47,4.05 h -17.5 c -2.42,0 -4.34,0 -5.77,-0.1 z"
       id="path18"
       style="stroke-width:0.894486" />
  </g>
</svg>
